<svg width="157" height="163" viewBox="0 0 157 163" fill="none" xmlns="http://www.w3.org/2000/svg">
<path d="M54.5854 34.3234L52.3249 33.0183L52.3249 33.0183L54.5854 34.3234ZM54.879 33.815L57.1395 35.1202L57.1395 35.1202L54.879 33.815ZM38.5057 62.1744L36.2451 60.8693L36.2451 60.8693L38.5057 62.1744ZM37.1125 64.5875L39.3731 65.8926H39.3731L37.1125 64.5875ZM28.3365 79.7879L30.5971 81.0931L28.3365 79.7879ZM22.3083 90.2291L24.5689 91.5342L22.3083 90.2291ZM33.3238 105.703L33.8171 108.266H33.8171L33.3238 105.703ZM42.1089 97.2885L44.5815 98.125L42.1089 97.2885ZM116.013 97.9059L113.526 98.7007V98.7007L116.013 97.9059ZM124.073 105.703L123.579 108.266L124.073 105.703ZM135.088 90.2291L132.828 91.5342L135.088 90.2291ZM129.06 79.7879L126.799 81.0931L129.06 79.7879ZM120.284 64.5875L118.023 65.8926L120.284 64.5875ZM118.891 62.1744L121.151 60.8693V60.8693L118.891 62.1744ZM102.811 34.3234L105.072 33.0183V33.0183L102.811 34.3234ZM102.517 33.815L100.257 35.1202L100.257 35.1202L102.517 33.815ZM96.7828 23.8823L94.5222 25.1874L96.7828 23.8823ZM87.7405 8.22057L90.0011 6.91543V6.91543L87.7405 8.22057ZM69.6559 8.22057L71.9165 9.52572L69.6559 8.22057ZM60.6136 23.8823L58.3531 22.5771L60.6136 23.8823ZM101.191 92.0033L103.23 90.373L101.191 92.0033ZM95.6549 100.204L94.533 102.561L94.9405 102.755L95.3894 102.801L95.6549 100.204ZM56.4484 92.3578L58.5124 93.9558L56.4484 92.3578ZM62.3986 100.107L61.9053 97.5439L61.9053 97.5439L62.3986 100.107ZM62.5172 100.084L63.0105 102.648L63.3285 102.586L63.622 102.449L62.5172 100.084ZM56.846 35.6286L57.1395 35.1202L52.6184 32.5099L52.3249 33.0183L56.846 35.6286ZM40.7662 63.4796L56.846 35.6286L52.3249 33.0183L36.2451 60.8693L40.7662 63.4796ZM39.3731 65.8926L40.7662 63.4796L36.2451 60.8693L34.8519 63.2823L39.3731 65.8926ZM30.5971 81.0931L39.3731 65.8926L34.8519 63.2823L26.0759 78.4828L30.5971 81.0931ZM24.5689 91.5342L30.5971 81.0931L26.0759 78.4828L20.0477 88.9239L24.5689 91.5342ZM32.8305 103.139C26.2423 104.407 21.2143 97.3445 24.5689 91.5342L20.0477 88.9239C14.4568 98.6077 22.8368 110.379 33.8171 108.266L32.8305 103.139ZM39.6363 96.4519C38.4564 99.9392 35.9147 102.546 32.8305 103.139L33.8171 108.266C39.2464 107.221 42.9828 102.85 44.5815 98.125L39.6363 96.4519ZM78.9593 68.2572C60.6887 68.2572 45.1819 80.0614 39.6363 96.4519L44.5815 98.125C49.4314 83.7904 62.9944 73.4778 78.9593 73.4778V68.2572ZM118.499 97.1111C113.15 80.3782 97.4736 68.2572 78.9593 68.2572V73.4778C95.1373 73.4778 108.849 84.0679 113.526 98.7007L118.499 97.1111ZM124.566 103.139C121.804 102.608 119.509 100.269 118.499 97.1111L113.526 98.7007C114.957 103.174 118.474 107.283 123.579 108.266L124.566 103.139ZM132.828 91.5342C136.182 97.3445 131.154 104.407 124.566 103.139L123.579 108.266C134.56 110.379 142.94 98.6077 137.349 88.9239L132.828 91.5342ZM126.799 81.0931L132.828 91.5342L137.349 88.9239L131.321 78.4828L126.799 81.0931ZM118.023 65.8926L126.799 81.0931L131.321 78.4828L122.545 63.2823L118.023 65.8926ZM116.63 63.4796L118.023 65.8926L122.545 63.2823L121.151 60.8693L116.63 63.4796ZM100.55 35.6286L116.63 63.4796L121.151 60.8693L105.072 33.0183L100.55 35.6286ZM100.257 35.1202L100.55 35.6286L105.072 33.0183L104.778 32.5099L100.257 35.1202ZM94.5222 25.1874L100.257 35.1202L104.778 32.5099L99.0434 22.5772L94.5222 25.1874ZM85.4799 9.52571L94.5222 25.1874L99.0434 22.5772L90.0011 6.91543L85.4799 9.52571ZM71.9165 9.52572C74.9306 4.30514 82.4659 4.30514 85.4799 9.52572L90.0011 6.91543C84.9776 -1.78553 72.4189 -1.78552 67.3954 6.91543L71.9165 9.52572ZM62.8742 25.1874L71.9165 9.52572L67.3954 6.91543L58.3531 22.5771L62.8742 25.1874ZM57.1395 35.1202L62.8742 25.1874L58.3531 22.5771L52.6184 32.5099L57.1395 35.1202ZM99.1527 93.6337C100.014 94.7109 99.8646 95.5942 99.3747 96.2712C98.7911 97.078 97.5371 97.7725 95.9203 97.6072L95.3894 102.801C98.7354 103.143 101.857 101.747 103.604 99.3313C105.446 96.7861 105.583 93.3154 103.23 90.373L99.1527 93.6337ZM78.9593 83.9189C87.1294 83.9189 94.4129 87.7074 99.1527 93.6337L103.23 90.373C97.5419 83.2612 88.7826 78.6983 78.9593 78.6983V83.9189ZM58.5124 93.9558C63.2434 87.8451 70.6422 83.9189 78.9593 83.9189V78.6983C68.9588 78.6983 60.0616 83.4271 54.3844 90.7598L58.5124 93.9558ZM61.9053 97.5439C60.3009 97.8527 59.0218 97.234 58.4058 96.4694C57.8831 95.8208 57.7186 94.981 58.5124 93.9558L54.3844 90.7598C52.0544 93.7693 52.3597 97.2864 54.3405 99.7448C56.2279 102.087 59.4857 103.326 62.8919 102.67L61.9053 97.5439ZM62.0239 97.5211L61.9053 97.5439L62.8919 102.67L63.0105 102.648L62.0239 97.5211ZM78.9592 93.838C72.6935 93.838 66.7453 95.2282 61.4124 97.7194L63.622 102.449C68.2774 100.275 73.4727 99.0586 78.9592 99.0586V93.838ZM96.7768 97.8471C91.3748 95.2758 85.3313 93.838 78.9592 93.838V99.0586C84.5387 99.0586 89.8171 100.316 94.533 102.561L96.7768 97.8471Z" fill="white"/>
<path d="M14.6546 148.213L20.7867 136.001L26.8668 148.213H34.6618L20.7867 120.463L0 162.036H7.69106L11.2248 155.073L14.6546 148.213ZM38.0916 155.125H30.4005L33.8303 162.036H41.5733L38.0916 155.125Z" fill="white"/>
<path d="M61.7276 155.073L54.816 162.036H82.5143V155.073H61.7276ZM54.816 120.463V121.606V152.63L61.7276 145.667V121.606V120.463H54.816Z" fill="white"/>
<path d="M102.448 127.323L95.5365 120.463V162.036L102.448 155.073V127.323Z" fill="white"/>
<path d="M136.161 120.463C130.393 120.463 125.508 122.542 121.507 126.595C117.453 130.648 115.375 135.533 115.375 141.25C115.375 147.018 117.453 151.851 121.507 155.904C125.56 159.958 130.393 162.036 136.161 162.036C141.93 162.036 146.763 159.958 150.816 155.904C154.921 151.903 157 147.018 157 141.25C157 135.533 154.921 130.648 150.816 126.595C146.763 122.542 141.93 120.463 136.161 120.463ZM136.161 127.426C139.955 127.426 143.229 128.778 145.931 131.48C148.633 134.182 149.984 137.456 149.984 141.25C149.984 145.043 148.685 148.317 145.931 151.071C143.229 153.774 139.955 155.073 136.161 155.073C132.368 155.073 129.042 153.774 126.34 151.071C123.637 148.369 122.338 145.043 122.338 141.25C122.338 137.456 123.637 134.182 126.34 131.48C129.094 128.726 132.368 127.426 136.161 127.426Z" fill="white"/>
</svg>
