<svg width="124" height="128" viewBox="0 0 124 128" fill="none" xmlns="http://www.w3.org/2000/svg">
<path d="M43.0494 27.0881L41.2676 26.0594L41.2676 26.0594L43.0494 27.0881ZM43.2808 26.6874L45.0626 27.7161L45.0626 27.7161L43.2808 26.6874ZM30.3751 49.0407L28.5933 48.012L28.5933 48.012L30.3751 49.0407ZM29.277 50.9427L27.4952 49.914L27.4952 49.914L29.277 50.9427ZM22.3596 62.924L24.1414 63.9527L24.1414 63.9527L22.3596 62.924ZM17.6081 71.1538L15.8263 70.1251L15.8263 70.1251L17.6081 71.1538ZM26.2907 83.3504L26.6795 85.3708L26.6795 85.3708L26.2907 83.3504ZM33.2153 76.7181L35.1642 77.3775L35.1642 77.3775L33.2153 76.7181ZM91.4676 77.2049L89.5078 77.8314L89.5078 77.8314L91.4676 77.2049ZM97.8204 83.3504L97.4316 85.3708L97.4316 85.3708L97.8204 83.3504ZM106.503 71.1539L104.721 72.1826L104.721 72.1826L106.503 71.1539ZM101.752 62.924L103.533 61.8952L103.533 61.8952L101.752 62.924ZM94.8341 50.9427L96.616 49.914L96.616 49.914L94.8341 50.9427ZM93.736 49.0407L91.9542 50.0694L91.9542 50.0694L93.736 49.0407ZM81.0617 27.0881L79.2798 28.1168L79.2798 28.1168L81.0617 27.0881ZM80.8303 26.6874L82.6121 25.6586L82.6121 25.6586L80.8303 26.6874ZM76.3101 18.8582L74.5283 19.8869L74.5283 19.8869L76.3101 18.8582ZM69.1828 6.51339L70.9647 5.48465L70.9647 5.48465L69.1828 6.51339ZM54.9283 6.51338L56.7101 7.54211L56.7101 7.54211L54.9283 6.51338ZM47.801 18.8582L49.5828 19.8869L47.801 18.8582ZM79.7849 72.5523L81.3917 71.2672L81.3917 71.2672L79.7849 72.5523ZM75.4212 79.0163L74.5369 80.874L74.8582 81.0269L75.2121 81.0631L75.4212 79.0163ZM44.5179 72.8318L46.1447 74.0913L46.1447 74.0913L44.5179 72.8318ZM49.2079 78.9399L49.5968 80.9603L49.5968 80.9603L49.2079 78.9399ZM49.3015 78.9219L49.6903 80.9423L49.941 80.8941L50.1723 80.786L49.3015 78.9219ZM44.8313 28.1168L45.0626 27.7161L41.499 25.6586L41.2676 26.0594L44.8313 28.1168ZM32.1569 50.0694L44.8313 28.1168L41.2676 26.0594L28.5933 48.012L32.1569 50.0694ZM31.0588 51.9714L32.1569 50.0694L28.5933 48.012L27.4952 49.914L31.0588 51.9714ZM24.1414 63.9527L31.0588 51.9714L27.4952 49.914L20.5778 61.8952L24.1414 63.9527ZM19.3899 72.1826L24.1414 63.9527L20.5778 61.8952L15.8263 70.1251L19.3899 72.1826ZM25.9018 81.33C20.7089 82.3294 16.7458 76.7623 19.3899 72.1826L15.8263 70.1251C11.4194 77.758 18.0246 87.0364 26.6795 85.3708L25.9018 81.33ZM31.2663 76.0587C30.3363 78.8075 28.3329 80.8621 25.9018 81.33L26.6795 85.3708C30.959 84.5472 33.9041 81.1019 35.1642 77.3775L31.2663 76.0587ZM62.2613 53.8352C47.8602 53.8352 35.6375 63.1394 31.2663 76.0587L35.1642 77.3775C38.9871 66.0787 49.6776 57.9501 62.2613 57.9501V53.8352ZM93.4274 76.5784C89.2112 63.3893 76.8547 53.8352 62.2613 53.8352V57.9501C75.0132 57.9501 85.8208 66.2975 89.5078 77.8314L93.4274 76.5784ZM98.2093 81.33C96.032 80.911 94.2231 79.0676 93.4274 76.5784L89.5078 77.8314C90.635 81.3577 93.4073 84.5963 97.4316 85.3708L98.2093 81.33ZM104.721 72.1826C107.365 76.7623 103.402 82.3294 98.2093 81.33L97.4316 85.3708C106.087 87.0364 112.692 77.758 108.285 70.1251L104.721 72.1826ZM99.9697 63.9527L104.721 72.1826L108.285 70.1251L103.533 61.8952L99.9697 63.9527ZM93.0523 51.9715L99.9697 63.9527L103.533 61.8952L96.616 49.914L93.0523 51.9715ZM91.9542 50.0694L93.0523 51.9715L96.616 49.914L95.5178 48.012L91.9542 50.0694ZM79.2798 28.1168L91.9542 50.0694L95.5178 48.012L82.8435 26.0594L79.2798 28.1168ZM79.0485 27.7161L79.2798 28.1168L82.8435 26.0594L82.6121 25.6586L79.0485 27.7161ZM74.5283 19.8869L79.0485 27.7161L82.6121 25.6586L78.0919 17.8295L74.5283 19.8869ZM67.401 7.54212L74.5283 19.8869L78.0919 17.8295L70.9647 5.48465L67.401 7.54212ZM56.7101 7.54211C59.0859 3.42717 65.0253 3.42717 67.401 7.54212L70.9647 5.48465C67.0051 -1.37358 57.1061 -1.3736 53.1464 5.48464L56.7101 7.54211ZM49.5828 19.8869L56.7101 7.54211L53.1464 5.48464L46.0192 17.8295L49.5828 19.8869ZM45.0626 27.7161L49.5828 19.8869L46.0192 17.8295L41.499 25.6586L45.0626 27.7161ZM78.1781 73.8374C78.8572 74.6865 78.7392 75.3827 78.3532 75.9163C77.8932 76.5522 76.9047 77.0997 75.6304 76.9695L75.2121 81.0631C77.8494 81.3326 80.3098 80.2322 81.6872 78.3282C83.1385 76.3221 83.2465 73.5864 81.3917 71.2672L78.1781 73.8374ZM62.2613 66.18C68.7012 66.18 74.4422 69.1662 78.1781 73.8374L81.3917 71.2672C76.9085 65.6616 70.0042 62.0651 62.2613 62.0651V66.18ZM46.1447 74.0913C49.8738 69.2747 55.7057 66.18 62.2613 66.18V62.0651C54.3788 62.0651 47.3658 65.7924 42.891 71.5722L46.1447 74.0913ZM48.8191 76.9195C47.5545 77.1629 46.5463 76.6753 46.0607 76.0726C45.6488 75.5613 45.5191 74.8994 46.1447 74.0913L42.891 71.5722C41.0545 73.9443 41.2951 76.7165 42.8564 78.6543C44.344 80.5007 46.9119 81.477 49.5968 80.9603L48.8191 76.9195ZM48.9127 76.9015L48.8191 76.9195L49.5968 80.9603L49.6903 80.9423L48.9127 76.9015ZM62.2613 73.9984C57.3226 73.9984 52.6342 75.0942 48.4307 77.0578L50.1723 80.786C53.8418 79.0719 57.9368 78.1134 62.2613 78.1134V73.9984ZM76.3055 77.1585C72.0476 75.1317 67.284 73.9984 62.2613 73.9984V78.1134C66.6592 78.1134 70.8198 79.1046 74.5369 80.874L76.3055 77.1585Z" fill="white"/>
<path d="M11.5754 116.858L16.4088 107.232L21.2012 116.858H27.3454L16.4088 94.9846L0.0243835 127.753H6.08661L8.87195 122.265L11.5754 116.858ZM30.0488 122.306H23.9866L26.69 127.753H32.7932L30.0488 122.306Z" fill="white"/>
<path d="M48.679 122.265L43.2312 127.753H65.0634V122.265H48.679ZM43.2312 94.9846V95.8858V120.339L48.679 114.851V95.8858V94.9846H43.2312Z" fill="white"/>
<path d="M80.7757 100.391L75.3279 94.9846V127.753L80.7757 122.265V100.391Z" fill="white"/>
<path d="M107.349 94.9846C102.802 94.9846 98.9519 96.6231 95.7979 99.818C92.6029 103.013 90.9645 106.863 90.9645 111.369C90.9645 115.916 92.6029 119.725 95.7979 122.92C98.9928 126.115 102.802 127.753 107.349 127.753C111.896 127.753 115.705 126.115 118.9 122.92C122.136 119.766 123.774 115.916 123.774 111.369C123.774 106.863 122.136 103.013 118.9 99.818C115.705 96.6231 111.896 94.9846 107.349 94.9846ZM107.349 100.473C110.339 100.473 112.92 101.538 115.05 103.668C117.18 105.798 118.245 108.379 118.245 111.369C118.245 114.359 117.22 116.94 115.05 119.111C112.92 121.241 110.339 122.265 107.349 122.265C104.359 122.265 101.737 121.241 99.6073 119.111C97.4773 116.981 96.4533 114.359 96.4533 111.369C96.4533 108.379 97.4773 105.798 99.6073 103.668C101.778 101.497 104.359 100.473 107.349 100.473Z" fill="white"/>
</svg>
