<svg width="69" height="38" viewBox="0 0 69 38" fill="none" xmlns="http://www.w3.org/2000/svg">
<path d="M30.9942 16.5H28.4942V21.5H30.9942V16.5ZM67.762 20.7678C68.7383 19.7915 68.7383 18.2085 67.762 17.2322L51.8521 1.32233C50.8758 0.34602 49.2928 0.34602 48.3165 1.32233C47.3402 2.29864 47.3402 3.88155 48.3165 4.85786L62.4587 19L48.3165 33.1421C47.3402 34.1184 47.3402 35.7014 48.3165 36.6777C49.2928 37.654 50.8758 37.654 51.8521 36.6777L67.762 20.7678ZM30.9942 21.5H65.9942V16.5H30.9942V21.5Z" fill="white"/>
<path d="M12 16.5H9.5V21.5H12V16.5ZM12 21.5H27V16.5H12V21.5Z" fill="#FF1B6D"/>
<path d="M3 16.5C1.61929 16.5 0.5 17.6193 0.5 19C0.5 20.3807 1.61929 21.5 3 21.5V16.5ZM3 21.5H8V16.5H3V21.5Z" fill="#FF1B6D"/>
</svg>
