<svg width="30" height="30" viewBox="0 0 30 30" fill="none" xmlns="http://www.w3.org/2000/svg">
<path d="M15 27.025C14.8159 27.0245 14.6371 26.9629 14.4917 26.85C9.85835 23.25 6.66668 20.15 4.43335 17.0917C1.58334 13.1834 0.933345 9.57504 2.50001 6.3667C3.61668 4.07504 6.82501 2.20004 10.575 3.2917C12.363 3.80815 13.9229 4.91569 15 6.43337C16.0771 4.91569 17.6371 3.80815 19.425 3.2917C23.1667 2.21671 26.3833 4.07504 27.5 6.3667C29.0667 9.57504 28.4167 13.1834 25.5667 17.0917C23.3333 20.15 20.1417 23.25 15.5083 26.85C15.3629 26.9629 15.1841 27.0245 15 27.025ZM8.44168 4.65004C7.54939 4.61531 6.66449 4.82424 5.88197 5.25441C5.09944 5.68458 4.44885 6.31974 4.00001 7.09171C2.70835 9.74171 3.29168 12.6917 5.78335 16.1C8.43132 19.5155 11.532 22.5545 15 25.1334C18.4675 22.5571 21.5681 19.5209 24.2167 16.1084C26.7167 12.6917 27.2917 9.74171 26 7.10004C25.1667 5.43337 22.6667 4.10837 19.8833 4.8917C18.9909 5.15546 18.1635 5.60314 17.4545 6.20593C16.7455 6.80873 16.1706 7.5533 15.7667 8.3917C15.7039 8.54455 15.5971 8.67527 15.4598 8.76728C15.3226 8.85928 15.1611 8.9084 14.9958 8.9084C14.8306 8.9084 14.6691 8.85928 14.5319 8.76728C14.3946 8.67527 14.2878 8.54455 14.225 8.3917C13.8242 7.5512 13.2502 6.8049 12.5408 6.20172C11.8313 5.59855 11.0024 5.15212 10.1083 4.8917C9.56666 4.73437 9.00574 4.65304 8.44168 4.65004Z" fill="white"/>
</svg>
