<svg width="30" height="30" viewBox="0 0 30 30" fill="none" xmlns="http://www.w3.org/2000/svg">
<path d="M27.0917 23.1916C26.2881 22.4752 25.5845 21.654 25 20.75C24.3618 19.5021 23.9794 18.1393 23.875 16.7416V12.625C23.8805 10.4296 23.0842 8.30786 21.6356 6.65827C20.187 5.00869 18.186 3.94484 16.0083 3.66663V2.59163C16.0083 2.29657 15.8911 2.0136 15.6825 1.80497C15.4738 1.59634 15.1909 1.47913 14.8958 1.47913C14.6008 1.47913 14.3178 1.59634 14.1092 1.80497C13.9005 2.0136 13.7833 2.29657 13.7833 2.59163V3.68329C11.6252 3.98157 9.6483 5.05184 8.21876 6.69588C6.78923 8.33992 6.00393 10.4463 6.00832 12.625V16.7416C5.90395 18.1393 5.52147 19.5021 4.88332 20.75C4.30906 21.6519 3.61682 22.4731 2.82499 23.1916C2.7361 23.2697 2.66486 23.3658 2.616 23.4736C2.56715 23.5814 2.54181 23.6983 2.54166 23.8166V24.95C2.54166 25.171 2.62945 25.3829 2.78573 25.5392C2.94201 25.6955 3.15398 25.7833 3.37499 25.7833H26.5417C26.7627 25.7833 26.9746 25.6955 27.1309 25.5392C27.2872 25.3829 27.375 25.171 27.375 24.95V23.8166C27.3748 23.6983 27.3495 23.5814 27.3006 23.4736C27.2518 23.3658 27.1805 23.2697 27.0917 23.1916ZM4.27499 24.1166C5.05033 23.3676 5.73299 22.5283 6.30832 21.6166C7.11217 20.1095 7.58118 18.4466 7.68332 16.7416V12.625C7.65027 11.6483 7.81409 10.675 8.16503 9.76302C8.51596 8.85101 9.04683 8.01895 9.72603 7.31638C10.4052 6.61381 11.2189 6.0551 12.1185 5.67352C13.0181 5.29194 13.9853 5.0953 14.9625 5.0953C15.9397 5.0953 16.9069 5.29194 17.8065 5.67352C18.7061 6.0551 19.5198 6.61381 20.1989 7.31638C20.8781 8.01895 21.409 8.85101 21.76 9.76302C22.1109 10.675 22.2747 11.6483 22.2417 12.625V16.7416C22.3438 18.4466 22.8128 20.1095 23.6167 21.6166C24.192 22.5283 24.8746 23.3676 25.65 24.1166H4.27499Z" fill="white"/>
<path d="M15 28.5666C15.5249 28.5545 16.0287 28.3572 16.4222 28.0095C16.8156 27.6618 17.0734 27.1861 17.15 26.6666H12.7667C12.8454 27.2002 13.1153 27.6871 13.5261 28.0366C13.9369 28.3861 14.4607 28.5744 15 28.5666Z" fill="white"/>
</svg>
